name Walk5.mot
datacolumns 19
datarows 20
range 1.22500000 1.32000000
endheader

                time	   L_ground_force_vx	   L_ground_force_vy	   L_ground_force_vz	   L_ground_force_px	   L_ground_force_py	   L_ground_force_pz	   R_ground_force_vx	   R_ground_force_vy	   R_ground_force_vz	   R_ground_force_px	   R_ground_force_py	   R_ground_force_pz	   L_ground_torque_x	   L_ground_torque_y	   L_ground_torque_z	   R_ground_torque_x	   R_ground_torque_y	   R_ground_torque_z	
          1.22500000	         -0.00007427	         14.82126593	          0.03912251	         -0.16162141	          0.00000000	         -0.02140223	          0.00000000	          0.00000000	         -0.00000000	          0.00000000	          0.00000000	          0.00000000	          0.00000000	         -0.00788484	          0.00000000	          0.00000000	          0.00000000	          0.00000000	
          1.23000000	          0.88556043	        104.61717515	         -2.98900468	         -0.37126139	          0.00000000	         -0.04739434	          0.00000000	          0.00000000	          0.00000000	          0.00000000	          0.00000000	          0.00000000	          0.00000000	          0.05995717	          0.00000000	          0.00000000	          0.00000000	          0.00000000	
          1.23500000	          1.79880059	        227.78347046	        -10.08335725	         -0.44364161	          0.00000000	         -0.05520916	          0.00000000	          0.00000000	          0.00000000	         -0.00000000	          0.00000000	         -0.00000000	          0.00000000	          0.16822342	          0.00000000	          0.00000000	         -0.00000000	          0.00000000	
          1.24000000	         -2.46696981	        273.49809288	        -16.97293331	         -0.43985171	          0.00000000	         -0.05472621	         -0.00000000	         -0.00000000	          0.00000000	         -0.00000000	          0.00000000	         -0.00000000	          0.00000000	          0.21512452	          0.00000000	          0.00000000	         -0.00000000	          0.00000000	
          1.24500000	        -13.68111456	        255.38726621	        -19.00112554	         -0.42890666	          0.00000000	         -0.05407817	         -0.00000000	         -0.00000000	         -0.00000000	         -0.00000000	          0.00000000	         -0.00000000	          0.00000000	          0.27257835	          0.00000000	          0.00000000	         -0.00000000	          0.00000000	
          1.25000000	        -28.48328388	        256.13603052	        -17.55509902	         -0.42387083	          0.00000000	         -0.05481410	         -0.00000000	         -0.00000000	         -0.00000000	          0.00000000	          0.00000000	          0.00000000	          0.00000000	          0.42547866	          0.00000000	          0.00000000	          0.00000000	          0.00000000	
          1.25500000	        -45.77491940	        288.15361824	        -14.68545795	         -0.42050511	          0.00000000	         -0.05655516	          0.00000000	          0.00000000	         -0.00000000	          0.00000000	          0.00000000	          0.00000000	          0.00000000	          0.68540009	          0.00000000	          0.00000000	          0.00000000	          0.00000000	
          1.26000000	        -62.24545147	        328.70075516	         -9.50765810	         -0.41608452	          0.00000000	         -0.05873986	          0.00000000	          0.00000000	          0.00000000	          0.00000000	          0.00000000	          0.00000000	          0.00000000	          0.90279108	          0.00000000	          0.00000000	          0.00000000	          0.00000000	
          1.26500000	        -71.72768833	        364.38344901	         -1.40637961	         -0.41133098	          0.00000000	         -0.06102943	          0.00000000	          0.00000000	          0.00000000	         -0.00000000	          0.00000000	         -0.00000000	          0.00000000	          0.89056728	          0.00000000	          0.00000000	         -0.00000000	          0.00000000	
          1.27000000	        -72.92040532	        393.62423225	          6.17793784	         -0.40757141	          0.00000000	         -0.06254360	         -0.00000000	         -0.00000000	         -0.00000000	         -0.00000000	          0.00000000	         -0.00000000	          0.00000000	          0.79511669	          0.00000000	          0.00000000	         -0.00000000	          0.00000000	
          1.27500000	        -70.81210487	        415.57139638	         10.18072668	         -0.40524775	          0.00000000	         -0.06343053	         -0.00000000	         -0.00000000	         -0.00000000	         -0.00000000	          0.00000000	         -0.00000000	          0.00000000	          0.74542464	          0.00000000	          0.00000000	         -0.00000000	          0.00000000	
          1.28000000	        -70.12140948	        429.06919101	         11.61695355	         -0.40343684	          0.00000000	         -0.06406586	         -0.00000000	          0.00000000	         -0.00000000	          0.00000000	          0.00000000	          0.00000000	          0.00000000	          0.81217274	          0.00000000	          0.00000000	          0.00000000	          0.00000000	
          1.28500000	        -72.11832427	        439.28403736	         13.07227228	         -0.40123377	          0.00000000	         -0.06456585	          0.00000000	          0.00000000	          0.00000000	          0.00000000	          0.00000000	          0.00000000	          0.00000000	          0.97382346	          0.00000000	          0.00000000	          0.00000000	          0.00000000	
          1.29000000	        -76.33920769	        453.20476050	         15.83330252	         -0.39866763	          0.00000000	         -0.06527538	          0.00000000	          0.00000000	          0.00000000	          0.00000000	          0.00000000	          0.00000000	          0.00000000	          1.08889223	          0.00000000	          0.00000000	         -0.00000000	          0.00000000	
          1.29500000	        -81.83070926	        473.51381891	         19.12667352	         -0.39619818	          0.00000000	         -0.06601710	         -0.00000000	         -0.00000000	          0.00000000	         -0.00000000	          0.00000000	         -0.00000000	          0.00000000	          1.13647354	          0.00000000	          0.00000000	         -0.00000000	          0.00000000	
          1.30000000	        -87.53385106	        498.63506489	         21.67400421	         -0.39376758	          0.00000000	         -0.06625806	         -0.00000000	         -0.00000000	         -0.00000000	         -0.00000000	          0.00000000	         -0.00000000	          0.00000000	          1.25166394	          0.00000000	          0.00000000	         -0.00000000	          0.00000000	
          1.30500000	        -92.76844844	        525.05940543	         22.92571181	         -0.39158501	          0.00000000	         -0.06628621	         -0.00000000	         -0.00000000	         -0.00000000	          0.00000000	          0.00000000	          0.00000000	          0.00000000	          1.40824647	          0.00000000	          0.00000000	          0.00000000	          0.00000000	
          1.31000000	        -96.64137928	        549.53465068	         22.98333213	         -0.38982437	          0.00000000	         -0.06630349	          0.00000000	          0.00000000	         -0.00000000	          0.00000000	          0.00000000	          0.00000000	          0.00000000	          1.56169184	          0.00000000	          0.00000000	          0.00000000	          0.00000000	
          1.31500000	        -98.16764664	        571.48005300	         22.64715449	         -0.38831359	          0.00000000	         -0.06612564	          0.00000000	          0.00000000	          0.00000000	          0.00000000	          0.00000000	          0.00000000	          0.00000000	          1.73999432	          0.00000000	          0.00000000	          0.00000000	          0.00000000	
          1.32000000	        -97.73813622	        591.81326282	         22.91225801	         -0.38721635	          0.00000000	         -0.06612843	          0.00000000	          0.00000000	          0.00000000	         -0.00000000	          0.00000000	         -0.00000000	          0.00000000	          1.91889216	          0.00000000	          0.00000000	         -0.00000000	          0.00000000	
